<svg width="30" height="30" viewBox="0 0 30 30" fill="none" xmlns="http://www.w3.org/2000/svg">
<path d="M9.5 11.3333C9.5 9.87465 10.0795 8.47571 11.1109 7.44426C12.1424 6.41281 13.5413 5.83334 15 5.83334C16.4587 5.83334 17.8576 6.41281 18.8891 7.44426C19.9205 8.47571 20.5 9.87465 20.5 11.3333C20.5 17.75 23.25 19.5833 23.25 19.5833H6.75C6.75 19.5833 9.5 17.75 9.5 11.3333Z" stroke="#111827" stroke-width="1.83333" stroke-linecap="round" stroke-linejoin="round"/>
<path d="M13.4417 23.25C13.5951 23.5291 13.8206 23.7618 14.0948 23.9239C14.3689 24.086 14.6815 24.1716 15 24.1716C15.3185 24.1716 15.6311 24.086 15.9052 23.9239C16.1793 23.7618 16.4049 23.5291 16.5583 23.25" stroke="#111827" stroke-width="1.83333" stroke-linecap="round" stroke-linejoin="round"/>
</svg>